<svg width="171" height="138" viewBox="0 0 171 138" fill="none" xmlns="http://www.w3.org/2000/svg">
<path d="M117.522 79.4119C126.553 78.6179 151.886 75.2765 163.424 73.7051C137.702 78.9156 88.9879 89.6987 61.9428 86.1111C37.6271 82.8855 23.2362 69.363 24.1046 49.1412C24.973 28.9195 39.488 20.4834 53.5068 20.4834C54.8714 14.1569 65.9128 -2.21955 83.5293 0.261647C97.6225 2.2466 104.537 15.4797 106.232 21.8481C109.623 21.3932 116.924 21.2492 119.755 21.8481C126.206 23.2127 136.131 28.7954 136.999 43.6826C137.867 58.5698 128.315 71.8442 113.428 73.7051C98.5405 75.566 83.5293 67.5021 86.2586 46.9082C88.6405 63.2841 98.9127 67.4607 103.751 67.5021C110.409 67.5848 123.303 63.5818 121.616 46.9082C119.928 30.2345 105.777 29.3744 98.9127 31.0285C98.83 25.818 95.2157 14.8511 81.4202 12.6676C67.6248 10.4842 62.6872 23.9984 61.9428 31.0285C57.8489 31.0285 48.1722 31.0285 43.582 37.7277C28.3396 59.9734 47.9241 75.0698 59.2135 79.4119C70.503 83.754 106.232 80.4043 117.522 79.4119Z" fill="black"/>
<path d="M4.56058 125.744C4.56058 127.166 4.87308 128.279 5.49808 129.084C6.13089 129.889 6.99417 130.291 8.08792 130.291C8.89261 130.291 9.59573 130.119 10.1973 129.775C10.8067 129.424 11.2129 128.947 11.416 128.346L13.2676 128.873C12.9239 129.842 12.291 130.584 11.3692 131.1C10.4551 131.615 9.36136 131.873 8.08792 131.873C6.24417 131.873 4.8262 131.299 3.83401 130.15C2.84183 129.002 2.34573 127.357 2.34573 125.217C2.34573 123.131 2.83011 121.529 3.79886 120.412C4.77542 119.287 6.18167 118.725 8.01761 118.725C9.85355 118.725 11.2442 119.283 12.1895 120.4C13.1348 121.518 13.6075 123.205 13.6075 125.463V125.744H4.56058ZM8.04105 120.283C6.99417 120.283 6.16605 120.627 5.55667 121.314C4.9473 121.994 4.62308 122.932 4.58401 124.127H11.4278C11.209 121.564 10.0801 120.283 8.04105 120.283ZM22.3902 120.623V118.959H24.3823L25.062 115.654H26.4683V118.959H31.5308V120.623H26.4683V128.264C26.4683 128.881 26.6323 129.338 26.9605 129.635C27.2964 129.932 27.8433 130.08 28.6011 130.08C29.648 130.08 30.8081 129.947 32.0816 129.682V131.287C30.7613 131.646 29.4527 131.826 28.1558 131.826C26.8902 131.826 25.9409 131.56 25.3081 131.029C24.6753 130.49 24.3589 129.643 24.3589 128.486V120.623H22.3902ZM41.708 114.248H43.8291V118.818C43.8291 119.279 43.794 120.049 43.7236 121.127H43.7588C44.5791 119.525 45.9033 118.725 47.7315 118.725C50.4658 118.725 51.833 120.213 51.833 123.189V131.639H49.7119V123.494C49.7119 122.432 49.5049 121.643 49.0908 121.127C48.6846 120.611 48.0322 120.353 47.1338 120.353C46.1651 120.353 45.3682 120.709 44.7432 121.42C44.126 122.123 43.8174 123.08 43.8174 124.291V131.639H41.708V114.248ZM62.6899 125.744C62.6899 127.166 63.0024 128.279 63.6274 129.084C64.2603 129.889 65.1235 130.291 66.2173 130.291C67.022 130.291 67.7251 130.119 68.3267 129.775C68.936 129.424 69.3423 128.947 69.5454 128.346L71.397 128.873C71.0532 129.842 70.4204 130.584 69.4985 131.1C68.5845 131.615 67.4907 131.873 66.2173 131.873C64.3735 131.873 62.9556 131.299 61.9634 130.15C60.9712 129.002 60.4751 127.357 60.4751 125.217C60.4751 123.131 60.9595 121.529 61.9282 120.412C62.9048 119.287 64.311 118.725 66.147 118.725C67.9829 118.725 69.3735 119.283 70.3189 120.4C71.2642 121.518 71.7368 123.205 71.7368 125.463V125.744H62.6899ZM66.1704 120.283C65.1235 120.283 64.2954 120.627 63.686 121.314C63.0767 121.994 62.7524 122.932 62.7134 124.127H69.5571C69.3384 121.564 68.2095 120.283 66.1704 120.283ZM90.5391 120.881C89.6641 120.732 88.8359 120.658 88.0547 120.658C86.7969 120.658 85.7812 121.131 85.0078 122.076C84.2344 123.021 83.8477 124.225 83.8477 125.685V131.639H81.7383V123.424C81.7383 122.83 81.6836 122.131 81.5742 121.326C81.4727 120.521 81.3242 119.732 81.1289 118.959H83.1328C83.4453 120.037 83.6328 121.014 83.6953 121.889H83.7539C84.1445 121.014 84.5273 120.373 84.9023 119.967C85.2773 119.553 85.7227 119.244 86.2383 119.041C86.7539 118.83 87.3828 118.725 88.125 118.725C88.9375 118.725 89.7422 118.791 90.5391 118.924V120.881ZM110.091 128.018C110.091 129.221 109.634 130.166 108.72 130.853C107.814 131.533 106.556 131.873 104.947 131.873C103.337 131.873 102.111 131.623 101.267 131.123C100.431 130.615 99.8843 129.818 99.6265 128.732L101.49 128.369C101.638 129.041 101.955 129.533 102.439 129.846C102.931 130.15 103.767 130.303 104.947 130.303C107.056 130.303 108.111 129.635 108.111 128.299C108.111 127.799 107.919 127.396 107.537 127.092C107.154 126.779 106.568 126.525 105.779 126.33C103.716 125.822 102.408 125.424 101.853 125.135C101.298 124.846 100.873 124.486 100.576 124.057C100.279 123.619 100.13 123.076 100.13 122.428C100.13 121.279 100.544 120.381 101.373 119.732C102.201 119.084 103.4 118.76 104.97 118.76C106.345 118.76 107.443 119.021 108.263 119.545C109.083 120.06 109.595 120.814 109.798 121.807L107.9 122.041C107.814 121.478 107.537 121.053 107.068 120.764C106.599 120.475 105.9 120.33 104.97 120.33C103.056 120.33 102.099 120.92 102.099 122.1C102.099 122.568 102.259 122.943 102.58 123.225C102.908 123.506 103.431 123.732 104.15 123.904L105.544 124.268C106.818 124.58 107.732 124.889 108.287 125.193C108.849 125.498 109.291 125.881 109.611 126.342C109.931 126.795 110.091 127.353 110.091 128.018ZM122.858 131.639V128.135H125.612V131.639H122.858ZM146.219 131.967C146.219 133.428 145.782 134.568 144.907 135.389C144.032 136.209 142.786 136.619 141.168 136.619C140.551 136.619 139.922 136.568 139.282 136.467C138.641 136.365 138.145 136.248 137.793 136.115V134.475C138.965 134.74 140.032 134.873 140.993 134.873C141.993 134.873 142.762 134.615 143.301 134.1C143.84 133.584 144.11 132.861 144.11 131.932V120.623H139.34V118.959H146.219V131.967ZM143.875 116.498V114.248H146.219V116.498H143.875ZM168.221 128.018C168.221 129.221 167.764 130.166 166.85 130.853C165.943 131.533 164.686 131.873 163.076 131.873C161.467 131.873 160.24 131.623 159.396 131.123C158.561 130.615 158.014 129.818 157.756 128.732L159.619 128.369C159.768 129.041 160.084 129.533 160.568 129.846C161.061 130.15 161.896 130.303 163.076 130.303C165.186 130.303 166.24 129.635 166.24 128.299C166.24 127.799 166.049 127.396 165.666 127.092C165.283 126.779 164.697 126.525 163.908 126.33C161.846 125.822 160.537 125.424 159.982 125.135C159.428 124.846 159.002 124.486 158.705 124.057C158.408 123.619 158.26 123.076 158.26 122.428C158.26 121.279 158.674 120.381 159.502 119.732C160.33 119.084 161.529 118.76 163.1 118.76C164.475 118.76 165.572 119.021 166.393 119.545C167.213 120.06 167.725 120.814 167.928 121.807L166.029 122.041C165.943 121.478 165.666 121.053 165.197 120.764C164.728 120.475 164.029 120.33 163.1 120.33C161.186 120.33 160.228 120.92 160.228 122.1C160.228 122.568 160.389 122.943 160.709 123.225C161.037 123.506 161.561 123.732 162.279 123.904L163.674 124.268C164.947 124.58 165.861 124.889 166.416 125.193C166.978 125.498 167.42 125.881 167.74 126.342C168.061 126.795 168.221 127.353 168.221 128.018Z" fill="black"/>
</svg>
