<?xml version="1.0" encoding="UTF-8" standalone="no"?>
<svg
   xmlns:dc="http://purl.org/dc/elements/1.1/"
   xmlns:cc="http://creativecommons.org/ns#"
   xmlns:rdf="http://www.w3.org/1999/02/22-rdf-syntax-ns#"
   xmlns:svg="http://www.w3.org/2000/svg"
   xmlns="http://www.w3.org/2000/svg"
   xmlns:xlink="http://www.w3.org/1999/xlink"
   xmlns:sodipodi="http://sodipodi.sourceforge.net/DTD/sodipodi-0.dtd"
   xmlns:inkscape="http://www.inkscape.org/namespaces/inkscape"
   width="300"
   height="260"
   version="1.1"
   id="svg263"
   sodipodi:docname="waffle-logo-square.svg"
   inkscape:version="1.0 (4035a4f, 2020-05-01)">
  <metadata
     id="metadata267">
    <rdf:RDF>
      <cc:Work
         rdf:about="">
        <dc:format>image/svg+xml</dc:format>
        <dc:type
           rdf:resource="http://purl.org/dc/dcmitype/StillImage" />
        <dc:title></dc:title>
      </cc:Work>
    </rdf:RDF>
  </metadata>
  <sodipodi:namedview
     fit-margin-bottom="0"
     fit-margin-right="0"
     fit-margin-left="0"
     fit-margin-top="0"
     inkscape:document-rotation="0"
     pagecolor="#ffffff"
     bordercolor="#666666"
     borderopacity="1"
     objecttolerance="10"
     gridtolerance="10"
     guidetolerance="10"
     inkscape:pageopacity="0"
     inkscape:pageshadow="2"
     inkscape:window-width="1440"
     inkscape:window-height="855"
     id="namedview265"
     showgrid="false"
     inkscape:snap-midpoints="true"
     inkscape:snap-bbox="true"
     inkscape:zoom="1.3803104"
     inkscape:cx="147.3506"
     inkscape:cy="183.80406"
     inkscape:window-x="0"
     inkscape:window-y="23"
     inkscape:window-maximized="1"
     inkscape:current-layer="svg263" />
  <defs
     id="defs102">
    <path
       id="t"
       d="M 24.867,260.74 454.736,3.796 a 28.28,28.28 0 0 1 28.307,0 l 426.087,246.166 7.883,-5.067 21.383,-6.23 v 62.025 a 1201.35,1201.35 0 0 0 -4.465,-2.21 28.29,28.29 0 0 1 -9.685,9.257 L 477.09,567.467 a 28.28,28.28 0 0 1 -28.307,0 L 14.174,316.175 A 28.319,28.319 0 0 1 0.144,289.034 v -41.745 z" />
    <linearGradient
       id="v"
       x1="366.45236"
       x2="366.45236"
       y1="-110.20858"
       y2="732.86908"
       gradientTransform="scale(1.2810371,0.78061754)"
       gradientUnits="userSpaceOnUse">
      <stop
         offset="0%"
         stop-color="#9C703E"
         id="stop11" />
      <stop
         offset="100%"
         stop-color="#784A25"
         id="stop13" />
    </linearGradient>
    <path
       id="u"
       d="m 39.063,330.866 c -1.516,-1.191 -6.334,-3.987 -11.244,-6.883 -5.73,-3.378 -18.257,-9.594 -21.938,-15.286 -3.68,-5.693 -5.858,-6.93 -5.858,-17.045 a 28.319,28.319 0 0 1 14.151,-24.521 l 428.818,-256.315 0.672,-0.373 0.348,-0.237 10.724,-6.41 c 0.232,-0.133 0.465,-0.264 0.7,-0.391 2.16,-1.05 4.181,-1.858 6.115,-2.437 a 28.3,28.3 0 0 1 13.645,-0.256 c 2.53,0.675 5.136,1.735 7.956,3.143 l 4.206,2.256 c 2.369,1.344 4.905,2.888 7.674,4.615 267.45,153.459 411.1,236.514 430.949,249.167 12.961,8.263 16.77,25.468 8.508,38.43 a 27.832,27.832 0 0 1 -9.45,9.083 l -38.12,22.226 -34.316,30.094 c -35.243,-10.455 -58.583,-12.097 -70.02,-4.924 -3.983,2.499 -11.176,-2.09 -17.444,-5.928 -6.27,-3.84 -20.67,8.134 -27.487,14.05 -2.904,2.52 -4.269,6.082 -4.095,10.688 a 14.941,14.941 0 0 1 -8.123,13.865 c -46.801,-12.582 -77.429,-8.331 -100.16,3.347 -10.084,5.181 -18.704,9.812 -25.884,13.71 a 4.874,4.874 0 0 0 -0.587,8.191 l 3.197,2.383 a 7.915,7.915 0 0 1 -0.291,12.9 l -5.161,3.495 c -15.61,-8.576 -23.71,-13.252 -24.297,-14.03 -0.047,-0.063 -2.194,0.715 -6.44,2.334 a 20,20 0 0 1 -2.627,0.8 c -13.404,3.09 -24.56,1.6 -33.471,-4.47 -13.846,-9.434 -20.513,-0.081 -23.596,2.534 -2.89,2.45 -2.375,16.082 -2.138,22.533 0.016,0.43 0.06,4.693 0,5.122 -0.04,0.287 -2.744,2.414 -8.115,6.38 -5.21,3.756 -11.228,5.775 -18.053,6.059 -10.238,0.425 -15.999,-3.94 -25.073,-10.326 -6.05,-4.257 -9.074,-8.996 -9.074,-14.216 1.586,-18.372 -4.586,-23.956 -18.517,-16.75 -15.402,7.958 -19.261,14.557 -35.683,6.61 -10.948,-5.297 -30.752,2.117 -59.41,22.243 l -21.881,13.6 a 51.071,51.071 0 0 1 -55.16,-0.798 15.13,15.13 0 0 0 -1.209,-0.725 c -11.13,-5.96 -14.687,29.104 -15.19,35.398 -0.293,10.786 -1.396,15.85 1.98,38.401 1.21,8.087 5.428,12.686 7.059,16.955 6.177,16.177 -3.264,23.431 -11.698,22.907 -8.434,-0.525 -15.475,-9.077 -10.818,-22.932 1.786,-5.315 4.362,-9.12 6.198,-16.93 4.62,-19.644 4.734,-27.922 2.585,-38.401 -4.953,-24.143 -12.824,-57.86 -31.187,-69.718 -25.023,-16.159 -52.73,-29.335 -63.815,-15.63 -3.593,4.443 -7.325,6.23 -10.875,3.115 -3.55,-3.115 -4.557,-5.921 -11.433,-20.197 -3.427,-7.114 -7.255,-12.365 -7.794,-13.3 -10.09,-17.5 -30.718,-26.671 -40.43,-31.924 a 1101.092,1101.092 0 0 1 -27.323,-15.28 z" />
    <pattern
       id="w"
       width="258"
       height="258"
       x="-257.977"
       y="-258"
       patternUnits="userSpaceOnUse">
      <use
         xlink:href="#a"
         id="use17" />
    </pattern>
    <linearGradient
       id="y"
       x1="0.5"
       x2="0.45043999"
       y1="0"
       y2="0.91953003">
      <stop
         offset="0%"
         stop-color="#71401B"
         id="stop20" />
      <stop
         offset="100%"
         stop-color="#472810"
         id="stop22" />
    </linearGradient>
    <path
       id="z"
       d="m 220.887,70.188 0.002,0.183 c 0,4.887 -2.604,9.402 -6.829,11.844 l -82.944,47.965 c -0.933,0.55 -1.914,0.978 -2.924,1.288 l -10.93,6.328 a 13.369,13.369 0 0 1 -13.456,0 L 6.922,81.674 A 13.504,13.504 0 0 1 0.23,70.007 C 0.23,65.2 2.78,60.755 6.922,58.339 L 103.857,2.191 a 13.446,13.446 0 0 1 13.43,0 l 96.91,56.148 a 13.504,13.504 0 0 1 6.69,11.85 z" />
    <pattern
       id="A"
       width="258"
       height="258"
       x="-257.77"
       y="-257.606"
       patternUnits="userSpaceOnUse">
      <use
         xlink:href="#b"
         id="use26" />
    </pattern>
    <linearGradient
       id="B"
       x1="0.5"
       x2="0.5"
       y1="0"
       y2="1">
      <stop
         offset="0%"
         stop-color="#7B4D27"
         id="stop29" />
      <stop
         offset="100%"
         stop-color="#683F1E"
         id="stop31" />
    </linearGradient>
    <path
       id="C"
       d="m 107.27,140.618 a 6.235,6.235 0 0 0 6.276,0 l 87.036,-50.562 9.2,-5.458 -96.213,-56.043 a 6.19,6.19 0 0 0 -6.253,0 l -96.286,55.444 9.365,6.057 z" />
    <pattern
       id="D"
       width="258"
       height="258"
       x="-246.97"
       y="-230.293"
       patternUnits="userSpaceOnUse">
      <use
         xlink:href="#c"
         id="use35" />
    </pattern>
    <path
       id="E"
       d="m 220.887,70.188 0.002,0.183 c 0,4.887 -2.604,9.402 -6.829,11.844 l -82.944,47.965 c -0.933,0.55 -1.914,0.978 -2.924,1.288 l -10.93,6.328 a 13.369,13.369 0 0 1 -13.456,0 L 6.922,81.674 A 13.504,13.504 0 0 1 0.23,70.007 C 0.23,65.2 2.78,60.755 6.922,58.339 L 103.857,2.191 a 13.446,13.446 0 0 1 13.43,0 l 96.91,56.148 a 13.504,13.504 0 0 1 6.69,11.85 z" />
    <pattern
       id="F"
       width="258"
       height="258"
       x="-257.77"
       y="-257.606"
       patternUnits="userSpaceOnUse">
      <use
         xlink:href="#d"
         id="use39" />
    </pattern>
    <path
       id="G"
       d="m 107.27,140.618 a 6.235,6.235 0 0 0 6.276,0 l 87.036,-50.562 9.2,-5.458 -96.213,-56.043 a 6.19,6.19 0 0 0 -6.253,0 l -96.286,55.444 9.365,6.057 z" />
    <pattern
       id="H"
       width="258"
       height="258"
       x="-246.97"
       y="-230.293"
       patternUnits="userSpaceOnUse">
      <use
         xlink:href="#e"
         id="use43" />
    </pattern>
    <path
       id="I"
       d="m 220.887,70.188 0.002,0.183 c 0,4.887 -2.604,9.402 -6.829,11.844 l -82.944,47.965 c -0.933,0.55 -1.914,0.978 -2.924,1.288 l -10.93,6.328 a 13.369,13.369 0 0 1 -13.456,0 L 6.922,81.674 A 13.504,13.504 0 0 1 0.23,70.007 C 0.23,65.2 2.78,60.755 6.922,58.339 L 103.857,2.191 a 13.446,13.446 0 0 1 13.43,0 l 96.91,56.148 a 13.504,13.504 0 0 1 6.69,11.85 z" />
    <pattern
       id="J"
       width="258"
       height="258"
       x="-257.77"
       y="-257.606"
       patternUnits="userSpaceOnUse">
      <use
         xlink:href="#f"
         id="use47" />
    </pattern>
    <path
       id="K"
       d="m 107.27,140.618 a 6.235,6.235 0 0 0 6.276,0 l 87.036,-50.562 9.2,-5.458 -96.213,-56.043 a 6.19,6.19 0 0 0 -6.253,0 l -96.286,55.444 9.365,6.057 z" />
    <pattern
       id="L"
       width="258"
       height="258"
       x="-246.97"
       y="-230.293"
       patternUnits="userSpaceOnUse">
      <use
         xlink:href="#g"
         id="use51" />
    </pattern>
    <path
       id="M"
       d="m 220.887,70.188 0.002,0.183 c 0,4.887 -2.604,9.402 -6.829,11.844 l -82.944,47.965 c -0.933,0.55 -1.914,0.978 -2.924,1.288 l -10.93,6.328 a 13.369,13.369 0 0 1 -13.456,0 L 6.922,81.674 A 13.504,13.504 0 0 1 0.23,70.007 C 0.23,65.2 2.78,60.755 6.922,58.339 L 103.857,2.191 a 13.446,13.446 0 0 1 13.43,0 l 96.91,56.148 a 13.504,13.504 0 0 1 6.69,11.85 z" />
    <pattern
       id="N"
       width="258"
       height="258"
       x="-257.77"
       y="-257.606"
       patternUnits="userSpaceOnUse">
      <use
         xlink:href="#h"
         id="use55" />
    </pattern>
    <path
       id="O"
       d="m 107.27,140.618 a 6.235,6.235 0 0 0 6.276,0 l 87.036,-50.562 9.2,-5.458 -96.213,-56.043 a 6.19,6.19 0 0 0 -6.253,0 l -96.286,55.444 9.365,6.057 z" />
    <pattern
       id="P"
       width="258"
       height="258"
       x="-246.97"
       y="-230.293"
       patternUnits="userSpaceOnUse">
      <use
         xlink:href="#i"
         id="use59" />
    </pattern>
    <path
       id="Q"
       d="m 220.887,70.188 0.002,0.183 c 0,4.887 -2.604,9.402 -6.829,11.844 l -82.944,47.965 c -0.933,0.55 -1.914,0.978 -2.924,1.288 l -10.93,6.328 a 13.369,13.369 0 0 1 -13.456,0 L 6.922,81.674 A 13.504,13.504 0 0 1 0.23,70.007 C 0.23,65.2 2.78,60.755 6.922,58.339 L 103.857,2.191 a 13.446,13.446 0 0 1 13.43,0 l 96.91,56.148 a 13.504,13.504 0 0 1 6.69,11.85 z" />
    <pattern
       id="R"
       width="258"
       height="258"
       x="-257.77"
       y="-257.606"
       patternUnits="userSpaceOnUse">
      <use
         xlink:href="#j"
         id="use63" />
    </pattern>
    <path
       id="S"
       d="m 107.27,140.618 a 6.235,6.235 0 0 0 6.276,0 l 87.036,-50.562 9.2,-5.458 -96.213,-56.043 a 6.19,6.19 0 0 0 -6.253,0 l -96.286,55.444 9.365,6.057 z" />
    <pattern
       id="T"
       width="258"
       height="258"
       x="-246.97"
       y="-230.293"
       patternUnits="userSpaceOnUse">
      <use
         xlink:href="#k"
         id="use67" />
    </pattern>
    <path
       id="U"
       d="m 220.887,70.188 0.002,0.183 c 0,4.887 -2.604,9.402 -6.829,11.844 l -82.944,47.965 c -0.933,0.55 -1.914,0.978 -2.924,1.288 l -10.93,6.328 a 13.369,13.369 0 0 1 -13.456,0 L 6.922,81.674 A 13.504,13.504 0 0 1 0.23,70.007 C 0.23,65.2 2.78,60.755 6.922,58.339 L 103.857,2.191 a 13.446,13.446 0 0 1 13.43,0 l 96.91,56.148 a 13.504,13.504 0 0 1 6.69,11.85 z" />
    <pattern
       id="V"
       width="258"
       height="258"
       x="-257.77"
       y="-257.606"
       patternUnits="userSpaceOnUse">
      <use
         xlink:href="#l"
         id="use71" />
    </pattern>
    <path
       id="W"
       d="m 107.27,140.618 a 6.235,6.235 0 0 0 6.276,0 l 87.036,-50.562 9.2,-5.458 -96.213,-56.043 a 6.19,6.19 0 0 0 -6.253,0 l -96.286,55.444 9.365,6.057 z" />
    <pattern
       id="X"
       width="258"
       height="258"
       x="-246.97"
       y="-230.293"
       patternUnits="userSpaceOnUse">
      <use
         xlink:href="#m"
         id="use75" />
    </pattern>
    <path
       id="Y"
       d="m 220.887,70.188 0.002,0.183 c 0,4.887 -2.604,9.402 -6.829,11.844 l -82.944,47.965 c -0.933,0.55 -1.914,0.978 -2.924,1.288 l -10.93,6.328 a 13.369,13.369 0 0 1 -13.456,0 L 6.922,81.674 A 13.504,13.504 0 0 1 0.23,70.007 C 0.23,65.2 2.78,60.755 6.922,58.339 L 103.857,2.191 a 13.446,13.446 0 0 1 13.43,0 l 96.91,56.148 a 13.504,13.504 0 0 1 6.69,11.85 z" />
    <pattern
       id="Z"
       width="258"
       height="258"
       x="-257.77"
       y="-257.606"
       patternUnits="userSpaceOnUse">
      <use
         xlink:href="#n"
         id="use79" />
    </pattern>
    <path
       id="aa"
       d="m 107.27,140.618 a 6.235,6.235 0 0 0 6.276,0 l 87.036,-50.562 9.2,-5.458 -96.213,-56.043 a 6.19,6.19 0 0 0 -6.253,0 l -96.286,55.444 9.365,6.057 z" />
    <pattern
       id="ab"
       width="258"
       height="258"
       x="-246.97"
       y="-230.293"
       patternUnits="userSpaceOnUse">
      <use
         xlink:href="#o"
         id="use83" />
    </pattern>
    <path
       id="ac"
       d="m 220.887,70.188 0.002,0.183 c 0,4.887 -2.604,9.402 -6.829,11.844 l -82.944,47.965 c -0.933,0.55 -1.914,0.978 -2.924,1.288 l -10.93,6.328 a 13.369,13.369 0 0 1 -13.456,0 L 6.922,81.674 A 13.504,13.504 0 0 1 0.23,70.007 C 0.23,65.2 2.78,60.755 6.922,58.339 L 103.857,2.191 a 13.446,13.446 0 0 1 13.43,0 l 96.91,56.148 a 13.504,13.504 0 0 1 6.69,11.85 z" />
    <pattern
       id="ad"
       width="258"
       height="258"
       x="-257.77"
       y="-257.606"
       patternUnits="userSpaceOnUse">
      <use
         xlink:href="#p"
         id="use87" />
    </pattern>
    <path
       id="ae"
       d="m 107.27,140.618 a 6.235,6.235 0 0 0 6.276,0 l 87.036,-50.562 9.2,-5.458 -96.213,-56.043 a 6.19,6.19 0 0 0 -6.253,0 l -96.286,55.444 9.365,6.057 z" />
    <pattern
       id="af"
       width="258"
       height="258"
       x="-246.97"
       y="-230.293"
       patternUnits="userSpaceOnUse">
      <use
         xlink:href="#q"
         id="use91" />
    </pattern>
    <path
       id="ag"
       d="m 220.887,70.188 0.002,0.183 c 0,4.887 -2.604,9.402 -6.829,11.844 l -82.944,47.965 c -0.933,0.55 -1.914,0.978 -2.924,1.288 l -10.93,6.328 a 13.369,13.369 0 0 1 -13.456,0 L 6.922,81.674 A 13.504,13.504 0 0 1 0.23,70.007 C 0.23,65.2 2.78,60.755 6.922,58.339 L 103.857,2.191 a 13.446,13.446 0 0 1 13.43,0 l 96.91,56.148 a 13.504,13.504 0 0 1 6.69,11.85 z" />
    <pattern
       id="ah"
       width="258"
       height="258"
       x="-257.77"
       y="-257.606"
       patternUnits="userSpaceOnUse">
      <use
         xlink:href="#r"
         id="use95" />
    </pattern>
    <path
       id="ai"
       d="m 107.27,140.618 a 6.235,6.235 0 0 0 6.276,0 l 87.036,-50.562 9.2,-5.458 -96.213,-56.043 a 6.19,6.19 0 0 0 -6.253,0 l -96.286,55.444 9.365,6.057 z" />
    <pattern
       id="aj"
       width="258"
       height="258"
       x="-246.97"
       y="-230.293"
       patternUnits="userSpaceOnUse">
      <use
         xlink:href="#s"
         id="use99" />
    </pattern>
    <linearGradient
       inkscape:collect="always"
       xlink:href="#y"
       id="linearGradient290"
       x1="87.817917"
       y1="0.49627399"
       x2="79.131516"
       y2="161.66273"
       gradientTransform="scale(1.2589628,0.79430461)"
       gradientUnits="userSpaceOnUse" />
    <linearGradient
       inkscape:collect="always"
       xlink:href="#B"
       id="linearGradient292"
       x1="83.52713"
       y1="36.623569"
       x2="83.52713"
       y2="186.98845"
       gradientTransform="scale(1.321798,0.75654524)"
       gradientUnits="userSpaceOnUse" />
    <linearGradient
       inkscape:collect="always"
       xlink:href="#y"
       id="linearGradient294"
       x1="87.817917"
       y1="0.49627399"
       x2="79.131516"
       y2="161.66273"
       gradientTransform="scale(1.2589628,0.79430461)"
       gradientUnits="userSpaceOnUse" />
    <linearGradient
       inkscape:collect="always"
       xlink:href="#B"
       id="linearGradient296"
       x1="83.52713"
       y1="36.623569"
       x2="83.52713"
       y2="186.98845"
       gradientTransform="scale(1.321798,0.75654524)"
       gradientUnits="userSpaceOnUse" />
    <linearGradient
       inkscape:collect="always"
       xlink:href="#y"
       id="linearGradient298"
       x1="87.817917"
       y1="0.49627399"
       x2="79.131516"
       y2="161.66273"
       gradientTransform="scale(1.2589628,0.79430461)"
       gradientUnits="userSpaceOnUse" />
    <linearGradient
       inkscape:collect="always"
       xlink:href="#B"
       id="linearGradient300"
       x1="83.52713"
       y1="36.623569"
       x2="83.52713"
       y2="186.98845"
       gradientTransform="scale(1.321798,0.75654524)"
       gradientUnits="userSpaceOnUse" />
    <linearGradient
       inkscape:collect="always"
       xlink:href="#y"
       id="linearGradient302"
       x1="87.817917"
       y1="0.49627399"
       x2="79.131516"
       y2="161.66273"
       gradientTransform="scale(1.2589628,0.79430461)"
       gradientUnits="userSpaceOnUse" />
    <linearGradient
       inkscape:collect="always"
       xlink:href="#B"
       id="linearGradient304"
       x1="83.52713"
       y1="36.623569"
       x2="83.52713"
       y2="186.98845"
       gradientTransform="scale(1.321798,0.75654524)"
       gradientUnits="userSpaceOnUse" />
    <linearGradient
       inkscape:collect="always"
       xlink:href="#y"
       id="linearGradient306"
       x1="87.817917"
       y1="0.49627399"
       x2="79.131516"
       y2="161.66273"
       gradientTransform="scale(1.2589628,0.79430461)"
       gradientUnits="userSpaceOnUse" />
    <linearGradient
       inkscape:collect="always"
       xlink:href="#B"
       id="linearGradient308"
       x1="83.52713"
       y1="36.623569"
       x2="83.52713"
       y2="186.98845"
       gradientTransform="scale(1.321798,0.75654524)"
       gradientUnits="userSpaceOnUse" />
    <linearGradient
       inkscape:collect="always"
       xlink:href="#y"
       id="linearGradient310"
       x1="87.817917"
       y1="0.49627399"
       x2="79.131516"
       y2="161.66273"
       gradientTransform="scale(1.2589628,0.79430461)"
       gradientUnits="userSpaceOnUse" />
    <linearGradient
       inkscape:collect="always"
       xlink:href="#B"
       id="linearGradient312"
       x1="83.52713"
       y1="36.623569"
       x2="83.52713"
       y2="186.98845"
       gradientTransform="scale(1.321798,0.75654524)"
       gradientUnits="userSpaceOnUse" />
    <linearGradient
       inkscape:collect="always"
       xlink:href="#y"
       id="linearGradient314"
       x1="87.817917"
       y1="0.49627399"
       x2="79.131516"
       y2="161.66273"
       gradientTransform="scale(1.2589628,0.79430461)"
       gradientUnits="userSpaceOnUse" />
    <linearGradient
       inkscape:collect="always"
       xlink:href="#B"
       id="linearGradient316"
       x1="83.52713"
       y1="36.623569"
       x2="83.52713"
       y2="186.98845"
       gradientTransform="scale(1.321798,0.75654524)"
       gradientUnits="userSpaceOnUse" />
    <linearGradient
       inkscape:collect="always"
       xlink:href="#y"
       id="linearGradient318"
       x1="87.817917"
       y1="0.49627399"
       x2="79.131516"
       y2="161.66273"
       gradientTransform="scale(1.2589628,0.79430461)"
       gradientUnits="userSpaceOnUse" />
    <linearGradient
       inkscape:collect="always"
       xlink:href="#B"
       id="linearGradient320"
       x1="83.52713"
       y1="36.623569"
       x2="83.52713"
       y2="186.98845"
       gradientTransform="scale(1.321798,0.75654524)"
       gradientUnits="userSpaceOnUse" />
    <linearGradient
       inkscape:collect="always"
       xlink:href="#y"
       id="linearGradient322"
       x1="87.817917"
       y1="0.49627399"
       x2="79.131516"
       y2="161.66273"
       gradientTransform="scale(1.2589628,0.79430461)"
       gradientUnits="userSpaceOnUse" />
    <linearGradient
       inkscape:collect="always"
       xlink:href="#B"
       id="linearGradient324"
       x1="83.52713"
       y1="36.623569"
       x2="83.52713"
       y2="186.98845"
       gradientTransform="scale(1.321798,0.75654524)"
       gradientUnits="userSpaceOnUse" />
  </defs>
  <g
     fill="none"
     fill-rule="evenodd"
     transform="matrix(0.29824353,0,0,0.29824353,9.9929148,4.8739952)"
     id="g261"
     inkscape:export-xdpi="96"
     inkscape:export-ydpi="96">
    <use
       fill="#ffae47"
       fill-rule="nonzero"
       transform="translate(0,44.133)"
       xlink:href="#t"
       id="use104"
       x="0"
       y="0"
       width="100%"
       height="100%" />
    <path
       fill="#fcc062"
       fill-rule="nonzero"
       d="m 483.043,3.797 441.204,254.897 a 28.319,28.319 0 0 1 14.15,24.522 28.319,28.319 0 0 1 -14.15,24.521 L 477.09,567.467 a 28.28,28.28 0 0 1 -28.307,0 L 14.174,316.175 A 28.319,28.319 0 0 1 0.024,291.653 28.319,28.319 0 0 1 14.174,267.132 L 454.736,3.797 a 28.28,28.28 0 0 1 28.307,0 z"
       id="path106" />
    <g
       fill-rule="nonzero"
       id="g112">
      <path
         fill="#da7d17"
         d="m 733.05,374.956 v 0.183 c 0,4.887 -2.603,9.402 -6.828,11.844 l -82.944,47.965 c -0.933,0.55 -1.914,0.978 -2.924,1.288 l -10.93,6.328 a 13.369,13.369 0 0 1 -13.456,0 l -96.884,-56.122 a 13.504,13.504 0 0 1 -6.692,-11.667 c 0,-4.807 2.55,-9.252 6.692,-11.668 l 96.935,-56.148 a 13.446,13.446 0 0 1 13.43,0 l 96.91,56.148 a 13.504,13.504 0 0 1 6.69,11.85 z"
         id="path108" />
      <path
         fill="#f7931e"
         d="m 619.432,445.386 a 6.235,6.235 0 0 0 6.276,0 l 87.036,-50.562 9.2,-5.458 -96.213,-56.043 a 6.19,6.19 0 0 0 -6.253,0 l -96.286,55.444 9.365,6.057 z"
         id="path110" />
    </g>
    <g
       fill-rule="nonzero"
       id="g118">
      <path
         fill="#da7d17"
         d="m 417.456,376.621 0.002,0.183 c 0,4.887 -2.604,9.402 -6.829,11.844 l -82.944,47.965 c -0.933,0.55 -1.914,0.978 -2.924,1.288 l -10.93,6.328 a 13.369,13.369 0 0 1 -13.456,0 l -96.884,-56.122 a 13.504,13.504 0 0 1 -6.692,-11.667 c 0,-4.807 2.55,-9.252 6.692,-11.668 l 96.935,-56.148 a 13.446,13.446 0 0 1 13.43,0 l 96.91,56.148 a 13.504,13.504 0 0 1 6.69,11.85 z"
         id="path114" />
      <path
         fill="#f7931e"
         d="m 303.84,447.05 a 6.235,6.235 0 0 0 6.275,0 l 87.036,-50.561 9.2,-5.458 -96.213,-56.043 a 6.19,6.19 0 0 0 -6.253,0 l -96.285,55.444 9.365,6.057 86.875,50.562 z"
         id="path116" />
    </g>
    <g
       fill-rule="nonzero"
       id="g124">
      <path
         fill="#da7d17"
         d="m 574.003,466.552 0.002,0.183 c 0,4.887 -2.604,9.402 -6.829,11.844 l -82.944,47.965 c -0.933,0.55 -1.914,0.978 -2.924,1.288 l -10.93,6.328 a 13.369,13.369 0 0 1 -13.456,0 l -96.884,-56.122 a 13.504,13.504 0 0 1 -6.692,-11.667 c 0,-4.807 2.55,-9.252 6.692,-11.668 l 96.935,-56.148 a 13.446,13.446 0 0 1 13.43,0 l 96.91,56.148 a 13.504,13.504 0 0 1 6.69,11.85 z"
         id="path120" />
      <path
         fill="#f7931e"
         d="m 460.386,536.982 a 6.235,6.235 0 0 0 6.276,0 l 87.036,-50.562 9.2,-5.458 -96.213,-56.043 a 6.19,6.19 0 0 0 -6.253,0 l -96.286,55.444 9.365,6.057 z"
         id="path122" />
    </g>
    <mask
       id="x"
       fill="#ffffff">
      <use
         xlink:href="#u"
         id="use126"
         x="0"
         y="0"
         width="100%"
         height="100%" />
    </mask>
    <g
       fill-rule="nonzero"
       id="g133">
      <use
         fill="url(#v)"
         xlink:href="#u"
         id="use129"
         style="fill:url(#v)"
         x="0"
         y="0"
         width="100%"
         height="100%" />
      <use
         fill="url(#w)"
         fill-opacity="0.059"
         xlink:href="#u"
         id="use131"
         x="0"
         y="0"
         width="100%"
         height="100%" />
    </g>
    <g
       fill-rule="nonzero"
       mask="url(#x)"
       id="g147">
      <g
         transform="translate(357.28,34.14)"
         id="g139">
        <use
           fill="url(#y)"
           xlink:href="#z"
           id="use135"
           style="fill:url(#linearGradient290)"
           x="0"
           y="0"
           width="100%"
           height="100%" />
        <use
           fill="url(#A)"
           fill-opacity="0.07"
           xlink:href="#z"
           id="use137"
           x="0"
           y="0"
           width="100%"
           height="100%" />
      </g>
      <g
         transform="translate(357.28,34.14)"
         id="g145">
        <use
           fill="url(#B)"
           xlink:href="#C"
           id="use141"
           style="fill:url(#linearGradient292)"
           x="0"
           y="0"
           width="100%"
           height="100%" />
        <use
           fill="url(#D)"
           fill-opacity="0.06"
           xlink:href="#C"
           id="use143"
           x="0"
           y="0"
           width="100%"
           height="100%" />
      </g>
    </g>
    <g
       fill-rule="nonzero"
       mask="url(#x)"
       id="g161">
      <g
         transform="translate(513.827,124.905)"
         id="g153">
        <use
           fill="url(#y)"
           xlink:href="#E"
           id="use149"
           style="fill:url(#linearGradient294)"
           x="0"
           y="0"
           width="100%"
           height="100%" />
        <use
           fill="url(#F)"
           fill-opacity="0.07"
           xlink:href="#E"
           id="use151"
           x="0"
           y="0"
           width="100%"
           height="100%" />
      </g>
      <g
         transform="translate(513.827,124.905)"
         id="g159">
        <use
           fill="url(#B)"
           xlink:href="#G"
           id="use155"
           style="fill:url(#linearGradient296)"
           x="0"
           y="0"
           width="100%"
           height="100%" />
        <use
           fill="url(#H)"
           fill-opacity="0.06"
           xlink:href="#G"
           id="use157"
           x="0"
           y="0"
           width="100%"
           height="100%" />
      </g>
    </g>
    <g
       fill-rule="nonzero"
       mask="url(#x)"
       id="g175">
      <g
         transform="translate(356.447,215.669)"
         id="g167">
        <use
           fill="url(#y)"
           xlink:href="#I"
           id="use163"
           style="fill:url(#linearGradient298)"
           x="0"
           y="0"
           width="100%"
           height="100%" />
        <use
           fill="url(#J)"
           fill-opacity="0.07"
           xlink:href="#I"
           id="use165"
           x="0"
           y="0"
           width="100%"
           height="100%" />
      </g>
      <g
         transform="translate(356.447,215.669)"
         id="g173">
        <use
           fill="url(#B)"
           xlink:href="#K"
           id="use169"
           style="fill:url(#linearGradient300)"
           x="0"
           y="0"
           width="100%"
           height="100%" />
        <use
           fill="url(#L)"
           fill-opacity="0.06"
           xlink:href="#K"
           id="use171"
           x="0"
           y="0"
           width="100%"
           height="100%" />
      </g>
    </g>
    <g
       fill-rule="nonzero"
       mask="url(#x)"
       id="g189">
      <g
         transform="translate(512.162,304.768)"
         id="g181">
        <use
           fill="url(#y)"
           xlink:href="#M"
           id="use177"
           style="fill:url(#linearGradient302)"
           x="0"
           y="0"
           width="100%"
           height="100%" />
        <use
           fill="url(#N)"
           fill-opacity="0.07"
           xlink:href="#M"
           id="use179"
           x="0"
           y="0"
           width="100%"
           height="100%" />
      </g>
      <g
         transform="translate(512.162,304.768)"
         id="g187">
        <use
           fill="url(#B)"
           xlink:href="#O"
           id="use183"
           style="fill:url(#linearGradient304)"
           x="0"
           y="0"
           width="100%"
           height="100%" />
        <use
           fill="url(#P)"
           fill-opacity="0.06"
           xlink:href="#O"
           id="use185"
           x="0"
           y="0"
           width="100%"
           height="100%" />
      </g>
    </g>
    <g
       fill-rule="nonzero"
       mask="url(#x)"
       id="g203">
      <g
         transform="translate(196.569,306.433)"
         id="g195">
        <use
           fill="url(#y)"
           xlink:href="#Q"
           id="use191"
           style="fill:url(#linearGradient306)"
           x="0"
           y="0"
           width="100%"
           height="100%" />
        <use
           fill="url(#R)"
           fill-opacity="0.07"
           xlink:href="#Q"
           id="use193"
           x="0"
           y="0"
           width="100%"
           height="100%" />
      </g>
      <g
         transform="translate(196.569,306.433)"
         id="g201">
        <use
           fill="url(#B)"
           xlink:href="#S"
           id="use197"
           style="fill:url(#linearGradient308)"
           x="0"
           y="0"
           width="100%"
           height="100%" />
        <use
           fill="url(#T)"
           fill-opacity="0.06"
           xlink:href="#S"
           id="use199"
           x="0"
           y="0"
           width="100%"
           height="100%" />
      </g>
    </g>
    <g
       fill-rule="nonzero"
       mask="url(#x)"
       id="g217">
      <g
         transform="translate(353.116,396.364)"
         id="g209">
        <use
           fill="url(#y)"
           xlink:href="#U"
           id="use205"
           style="fill:url(#linearGradient310)"
           x="0"
           y="0"
           width="100%"
           height="100%" />
        <use
           fill="url(#V)"
           fill-opacity="0.07"
           xlink:href="#U"
           id="use207"
           x="0"
           y="0"
           width="100%"
           height="100%" />
      </g>
      <g
         transform="translate(353.116,396.364)"
         id="g215">
        <use
           fill="url(#B)"
           xlink:href="#W"
           id="use211"
           style="fill:url(#linearGradient312)"
           x="0"
           y="0"
           width="100%"
           height="100%" />
        <use
           fill="url(#X)"
           fill-opacity="0.06"
           xlink:href="#W"
           id="use213"
           x="0"
           y="0"
           width="100%"
           height="100%" />
      </g>
    </g>
    <g
       fill-rule="nonzero"
       mask="url(#x)"
       id="g231">
      <g
         transform="translate(668.709,214.836)"
         id="g223">
        <use
           fill="url(#y)"
           xlink:href="#Y"
           id="use219"
           style="fill:url(#linearGradient314)"
           x="0"
           y="0"
           width="100%"
           height="100%" />
        <use
           fill="url(#Z)"
           fill-opacity="0.07"
           xlink:href="#Y"
           id="use221"
           x="0"
           y="0"
           width="100%"
           height="100%" />
      </g>
      <g
         transform="translate(668.709,214.836)"
         id="g229">
        <use
           fill="url(#B)"
           xlink:href="#aa"
           id="use225"
           style="fill:url(#linearGradient316)"
           x="0"
           y="0"
           width="100%"
           height="100%" />
        <use
           fill="url(#ab)"
           fill-opacity="0.06"
           xlink:href="#aa"
           id="use227"
           x="0"
           y="0"
           width="100%"
           height="100%" />
      </g>
    </g>
    <g
       fill-rule="nonzero"
       mask="url(#x)"
       id="g245">
      <g
         transform="translate(200.733,124.905)"
         id="g237">
        <use
           fill="url(#y)"
           xlink:href="#ac"
           id="use233"
           style="fill:url(#linearGradient318)"
           x="0"
           y="0"
           width="100%"
           height="100%" />
        <use
           fill="url(#ad)"
           fill-opacity="0.07"
           xlink:href="#ac"
           id="use235"
           x="0"
           y="0"
           width="100%"
           height="100%" />
      </g>
      <g
         transform="translate(200.733,124.905)"
         id="g243">
        <use
           fill="url(#B)"
           xlink:href="#ae"
           id="use239"
           style="fill:url(#linearGradient320)"
           x="0"
           y="0"
           width="100%"
           height="100%" />
        <use
           fill="url(#af)"
           fill-opacity="0.06"
           xlink:href="#ae"
           id="use241"
           x="0"
           y="0"
           width="100%"
           height="100%" />
      </g>
    </g>
    <g
       fill-rule="nonzero"
       mask="url(#x)"
       id="g259">
      <g
         transform="translate(42.52,218.167)"
         id="g251">
        <use
           fill="url(#y)"
           xlink:href="#ag"
           id="use247"
           style="fill:url(#linearGradient322)"
           x="0"
           y="0"
           width="100%"
           height="100%" />
        <use
           fill="url(#ah)"
           fill-opacity="0.07"
           xlink:href="#ag"
           id="use249"
           x="0"
           y="0"
           width="100%"
           height="100%" />
      </g>
      <g
         transform="translate(42.52,218.167)"
         id="g257">
        <use
           fill="url(#B)"
           xlink:href="#ai"
           id="use253"
           style="fill:url(#linearGradient324)"
           x="0"
           y="0"
           width="100%"
           height="100%" />
        <use
           fill="url(#aj)"
           fill-opacity="0.06"
           xlink:href="#ai"
           id="use255"
           x="0"
           y="0"
           width="100%"
           height="100%" />
      </g>
    </g>
  </g>
  <path
     id="path279"
     d="m 81.892285,247.12069 c -0.353436,0.51249 -0.976386,0.76872 -1.868856,0.76872 -0.892482,0 -1.647978,-0.2474 -2.266518,-0.7422 -0.618546,-0.49479 -1.131042,-1.1133 -1.537506,-1.85552 -0.812946,-1.4844 -1.219404,-2.9688 -1.219404,-4.45319 0,-1.48442 0.16347,-3.00416 0.49041,-4.55927 0.326946,-1.55509 0.773178,-3.1941 1.338696,-4.91709 0.565524,-1.72297 1.223814,-3.48567 1.9749,-5.28818 0.751104,-1.8025 1.550772,-3.5608 2.399058,-5.27496 1.731924,-3.56964 3.454974,-6.66214 5.169222,-9.27751 h -0.291606 c -2.103048,0 -4.055832,0.47712 -5.858442,1.43138 -0.441816,0.33576 -0.865962,0.50364 -1.27242,0.50364 -0.848286,0 -1.670046,-0.41528 -2.465334,-1.24584 -1.837944,-1.94388 -0.742266,-3.55196 3.287094,-4.82432 1.89099,-0.61851 3.415224,-0.92776 4.572786,-0.92776 1.157544,0 2.089782,0.18111 2.796684,0.5434 0.706902,0.36227 1.30776,0.7908 1.80258,1.28559 0.777606,0.77757 1.329882,1.54626 1.656822,2.30615 0.32694,0.75988 0.49041,1.42696 0.49041,2.00128 0,0.57435 -0.17229,1.34304 -0.51693,2.30615 -0.344622,0.9631 -0.782016,1.99244 -1.312176,3.08809 l -1.80261,3.49896 c -0.636216,1.21933 -1.272426,2.5005 -1.908624,3.84354 l -1.908648,4.02912 c -0.636222,1.34304 -1.201722,2.65068 -1.696566,3.92304 -1.078026,2.84513 -1.617024,5.25726 -1.617024,7.23648 0,1.09565 0.106038,2.04106 0.318096,2.83629 l 2.78343,-4.63876 c 5.655246,-9.11855 11.239704,-15.97502 16.753591,-20.56964 1.55518,-1.3077 3.09267,-2.33262 4.61251,-3.07483 0.24743,-0.12368 0.53903,-0.18563 0.87481,-0.18563 0.33578,0 0.69365,0.0397 1.07361,0.11937 0.37996,0.0796 0.73782,0.19875 1.07359,0.35786 0.77761,0.3711 1.16639,0.82171 1.16639,1.35187 0,0.24741 -0.0884,0.47712 -0.26508,0.68919 l -0.9278,1.00728 c -3.53454,3.74637 -5.91147,8.97707 -7.13089,15.69227 -0.38879,2.06758 -0.58319,3.7066 -0.58319,4.9171 0,1.2105 0.0353,2.03664 0.10605,2.47844 0.0708,0.44178 0.21208,0.85705 0.42414,1.24584 0.47716,0.88357 1.19288,1.32535 2.14721,1.32535 0.95432,0 2.01466,-0.35343 3.18105,-1.06029 1.16641,-0.70686 2.34604,-1.67878 3.53894,-2.9158 1.19291,-1.23701 2.35043,-2.69048 3.47266,-4.36043 1.1222,-1.66996 2.11627,-3.45918 2.98224,-5.36772 1.94398,-4.22351 2.91596,-8.25256 2.91596,-12.0873 0,-2.95116 -0.65388,-5.45164 -1.96164,-7.50156 -0.35346,-0.53014 -0.009,-1.21932 1.03384,-2.06757 1.06034,-0.88357 2.25323,-1.32534 3.5787,-1.32534 1.74958,0 2.93363,1.55507 3.55217,4.66527 0.21208,1.02494 0.3181,2.36798 0.3181,4.02909 0,1.66113 -0.20326,3.49013 -0.6097,5.487 -0.40646,1.99689 -0.97639,3.94515 -1.70981,5.84485 -0.73341,1.89971 -1.59938,3.72425 -2.59788,5.47376 -0.9985,1.74947 -2.08976,3.38406 -3.27384,4.90383 -1.18406,1.51976 -2.43879,2.90253 -3.76425,4.14839 -1.32545,1.24584 -2.67737,2.31052 -4.05584,3.19411 -2.84529,1.8732 -5.54034,2.80977 -8.08519,2.80977 -2.332791,0 -4.073535,-0.91892 -5.222241,-2.75676 -1.00734,-1.59043 -1.511004,-3.61381 -1.511004,-6.07015 0,-4.06446 0.78642,-8.014 2.35929,-11.84873 -1.46685,1.64346 -2.898312,3.3399 -4.29444,5.08939 -3.46383,4.52393 -5.876118,7.7666 -7.236906,9.72815 z m 60.940865,-6.49425 c 0,1.62578 0.57433,2.43865 1.72306,2.43865 0.79527,0 1.45359,-0.12367 1.97493,-0.3711 0.52134,-0.24739 0.87036,-0.3711 1.04709,-0.3711 0.37112,0 0.55668,0.19445 0.55668,0.58316 0,1.51977 -0.79527,2.82744 -2.38579,3.92307 -1.67891,1.14865 -3.39314,1.43139 -5.14272,0.84823 -1.14872,-0.40644 -1.99699,-1.28118 -2.54485,-2.62422 -0.26509,-0.68917 -0.39763,-1.31652 -0.39763,-1.88202 0,-0.91891 0.0884,-1.89083 0.26508,-2.91577 -1.64354,3.3576 -3.6847,5.67253 -6.12354,6.94489 -0.97197,0.49481 -2.00582,0.7422 -3.10152,0.7422 -1.09571,0 -2.0456,-0.22531 -2.8497,-0.67594 -0.80411,-0.45063 -1.4889,-1.07354 -2.05444,-1.86876 -1.14871,-1.66113 -1.67005,-3.74634 -1.564,-6.25572 0.10604,-3.14553 1.03382,-6.22917 2.78343,-9.25101 1.6082,-2.82747 3.64053,-5.13356 6.09702,-6.91839 2.45648,-1.82016 4.75389,-2.73024 6.89228,-2.73024 2.13839,0 3.86145,0.98076 5.16924,2.94229 1.21941,-1.96153 2.2974,-2.94229 3.23407,-2.94229 1.00735,0 1.76725,0.18561 2.27975,0.55663 0.972,0.70688 1.31661,1.32536 1.03384,1.85552 -4.43581,9.0832 -6.71557,14.73801 -6.83926,16.96464 -0.0353,0.31808 -0.0531,0.65384 -0.0531,1.00728 z m -14.7124,0.10604 c 0,2.12058 0.68039,3.18085 2.04117,3.18085 1.04268,0 2.32393,-0.88356 3.84377,-2.65071 2.22678,-2.59773 4.19724,-6.09663 5.91149,-10.49688 0.54784,-1.37838 1.00732,-2.75673 1.37846,-4.13511 -0.0707,-1.20167 -0.57436,-2.08524 -1.511,-2.65073 -0.31812,-0.19444 -0.79085,-0.29158 -1.41824,-0.29158 -0.62739,0 -1.36078,0.22972 -2.20023,0.68919 -0.83943,0.45945 -1.65238,1.08679 -2.43881,1.88202 -0.78643,0.79521 -1.51984,1.73622 -2.20022,2.82303 -0.68041,1.08679 -1.27685,2.26634 -1.78936,3.5387 -1.07802,2.72142 -1.61703,5.42514 -1.61703,8.11122 z m 18.76531,12.77647 c 0,-0.3711 0.27832,-1.10886 0.835,-2.21334 0.55671,-1.10448 1.1664,-2.51378 1.82913,-4.22792 0.66273,-1.71414 1.2945,-3.49894 1.89539,-5.35445 0.60085,-1.85552 1.21056,-3.84354 1.82911,-5.96412 l 2.06768,-6.99791 -2.75691,0.7422 c -0.68924,0 -1.25477,-0.36227 -1.69657,-1.08681 -0.10603,-0.19444 -0.15895,-0.42411 -0.15895,-0.68918 0,-0.26508 0.21208,-0.57874 0.63621,-0.94101 0.42414,-0.36228 0.94548,-0.70245 1.56402,-1.02052 1.23708,-0.63618 2.50949,-1.12215 3.81727,-1.45791 l 0.23858,-0.7422 c 0.47717,-1.4844 0.93224,-3.02622 1.3652,-4.6255 0.43297,-1.59929 0.89246,-3.15878 1.37846,-4.67853 0.48601,-1.51976 1.03827,-2.96439 1.65681,-4.33394 0.61854,-1.36956 1.34313,-2.56677 2.17372,-3.59172 1.83797,-2.22662 4.14419,-3.33992 6.9188,-3.33992 2.05004,0 3.6759,0.5478 4.87763,1.64345 1.20175,1.09563 1.8026,2.58003 1.8026,4.4532 0,1.94388 -0.55668,3.6315 -1.67005,5.06289 -0.93666,1.184 -1.97931,1.776 -3.12804,1.776 -1.43148,0 -2.40348,-0.65385 -2.91597,-1.96155 -0.14133,-0.33576 -0.21209,-0.61849 -0.21209,-0.84823 0,-0.38876 0.26508,-0.7422 0.79526,-1.06028 0.97201,-0.7422 1.6524,-1.7318 2.0412,-2.96883 0.12367,-0.38874 0.18562,-0.76869 0.18562,-1.13979 0,-1.44908 -0.56552,-2.17359 -1.69657,-2.17359 -1.55518,0 -2.98665,1.75829 -4.29444,5.27493 -0.3888,1.07796 -0.77757,2.26194 -1.16637,3.55197 l -2.49183,8.4558 c 1.6082,-0.2474 2.77899,-0.3711 3.51242,-0.3711 0.73339,0 1.38287,0.0839 1.94839,0.25183 0.56553,0.16778 1.07802,0.40202 1.5375,0.70244 1.04269,0.68919 1.56404,1.53741 1.56404,2.54469 0,1.00728 -0.49483,1.51092 -1.48448,1.51092 l -3.36663,-0.13249 c -1.83795,0 -3.53451,0.0796 -5.08969,0.23855 l -2.17374,7.6871 c -1.43148,5.21313 -2.59344,9.00362 -3.4859,11.37162 -0.89248,2.36798 -1.76284,4.37367 -2.61112,6.01713 -0.79528,1.50208 -2.00583,2.25312 -3.63171,2.25312 -1.62588,0 -2.43882,-0.53898 -2.43882,-1.61694 z m 19.48106,0 c 0,-0.3711 0.27832,-1.10886 0.835,-2.21334 0.5567,-1.10448 1.16639,-2.51378 1.82911,-4.22792 0.66272,-1.71414 1.29451,-3.49894 1.8954,-5.35445 0.60085,-1.85552 1.21057,-3.84354 1.82911,-5.96412 l 2.06769,-6.99791 -2.75694,0.7422 c -0.68922,0 -1.25475,-0.36227 -1.69656,-1.08681 -0.10605,-0.19444 -0.15896,-0.42411 -0.15896,-0.68918 0,-0.26508 0.21209,-0.57874 0.63623,-0.94101 0.42414,-0.36228 0.94548,-0.70245 1.56402,-1.02052 1.23708,-0.63618 2.50949,-1.12215 3.81727,-1.45791 l 0.23858,-0.7422 c 0.47717,-1.4844 0.93222,-3.02622 1.36521,-4.6255 0.43297,-1.59929 0.89245,-3.15878 1.37846,-4.67853 0.486,-1.51976 1.03825,-2.96439 1.65679,-4.33394 0.61854,-1.36956 1.34313,-2.56677 2.17374,-3.59172 1.83794,-2.22662 4.14418,-3.33992 6.9188,-3.33992 2.05003,0 3.67589,0.5478 4.87762,1.64345 1.20174,1.09563 1.80261,2.58003 1.80261,4.4532 0,1.94388 -0.55668,3.6315 -1.67005,5.06289 -0.93667,1.184 -1.97933,1.776 -3.12806,1.776 -1.43148,0 -2.40347,-0.65385 -2.91597,-1.96155 -0.14131,-0.33576 -0.21207,-0.61849 -0.21207,-0.84823 0,-0.38876 0.26508,-0.7422 0.79525,-1.06028 0.97201,-0.7422 1.65239,-1.7318 2.04119,-2.96883 0.12369,-0.38874 0.18563,-0.76869 0.18563,-1.13979 0,-1.44908 -0.56552,-2.17359 -1.69657,-2.17359 -1.55521,0 -2.98665,1.75829 -4.29444,5.27493 -0.3888,1.07796 -0.77758,2.26194 -1.16638,3.55197 l -2.49183,8.4558 c 1.60821,-0.2474 2.779,-0.3711 3.51243,-0.3711 0.7334,0 1.38287,0.0839 1.94839,0.25183 0.56552,0.16778 1.07803,0.40202 1.53751,0.70244 1.04269,0.68919 1.56403,1.53741 1.56403,2.54469 0,1.00728 -0.49485,1.51092 -1.48452,1.51092 l -3.3666,-0.13249 c -1.83795,0 -3.5345,0.0796 -5.08968,0.23855 l -2.17374,7.6871 c -1.43148,5.21313 -2.59344,9.00362 -3.48591,11.37162 -0.89247,2.36798 -1.76283,4.37367 -2.61111,6.01713 -0.79527,1.50208 -2.00583,2.25312 -3.63171,2.25312 -1.62588,0 -2.43881,-0.53898 -2.43881,-1.61694 z m 23.77545,-6.89187 c -0.44181,-0.45947 -0.79967,-1.04703 -1.07361,-1.76274 -0.27393,-0.7157 -0.41088,-1.54626 -0.41088,-2.49168 0,-0.94544 0.21648,-2.21334 0.64946,-3.80379 0.43298,-1.59043 0.98525,-3.40176 1.65682,-5.43397 l 2.22672,-6.60032 c 3.16341,-9.1892 4.99251,-16.29306 5.48735,-21.31181 0.15895,-1.4844 0.88362,-2.2266 2.1737,-2.2266 0.81295,0 1.48451,0.19445 2.0147,0.58316 1.025,0.77754 1.51982,1.64344 1.48448,2.5977 -0.0352,0.95428 -0.20327,2.11617 -0.50366,3.4857 -0.30045,1.36955 -0.68922,2.86278 -1.16639,4.47972 -0.47716,1.61697 -1.025,3.32666 -1.64354,5.12916 l -3.65824,10.76196 c -2.10304,6.11436 -3.15455,10.06389 -3.15455,11.84873 0,0.95425 0.38881,1.43137 1.16641,1.43137 0.74223,0 1.41821,-0.15894 2.02791,-0.47712 0.6097,-0.31809 1.00291,-0.47713 1.17963,-0.47713 0.37115,0 0.55671,0.18562 0.55671,0.55666 0,1.57275 -0.8041,2.88927 -2.41231,3.94957 -1.07804,0.72455 -2.06327,1.0868 -2.95574,1.0868 -0.89247,0 -1.61262,-0.10604 -2.16046,-0.31809 -0.54786,-0.21209 -1.04268,-0.5478 -1.48451,-1.00726 z m 12.24414,-8.21724 c 0.0707,-1.53744 0.32694,-3.00858 0.76875,-4.41348 0.44181,-1.40487 1.03383,-2.76557 1.7761,-4.08209 0.74225,-1.31653 1.61261,-2.56237 2.61113,-3.73753 0.99849,-1.17516 2.08093,-2.20452 3.24732,-3.0881 2.52719,-1.89085 5.08086,-2.83627 7.66104,-2.83627 3.02204,0 5.03668,1.24584 6.04403,3.73753 0.35344,0.84822 0.52134,1.85108 0.50365,3.00857 -0.0172,1.15749 -0.23857,2.2266 -0.66271,3.20739 -0.42415,0.98076 -1.01176,1.87314 -1.76285,2.6772 -0.75108,0.80406 -1.64354,1.52418 -2.67738,2.16036 -1.03384,0.63618 -2.16045,1.17513 -3.37989,1.61694 -2.5095,0.88358 -5.1957,1.34304 -8.05866,1.37838 -0.0708,0.2474 -0.11487,0.6185 -0.13251,1.1133 -0.0172,0.49479 0.0353,1.04703 0.15918,1.65671 0.12368,0.60966 0.33578,1.15305 0.63621,1.63018 0.63621,1.06031 1.55517,1.59045 2.75692,1.59045 2.05001,0 4.04699,-0.60084 5.99099,-1.8025 0.68924,-0.40644 1.25033,-0.82616 1.68331,-1.25909 0.43298,-0.43296 0.80852,-0.64944 1.12664,-0.64944 0.31809,0 0.59643,0.18993 0.83501,0.56991 0.23857,0.37995 0.35787,0.80847 0.35787,1.28559 0,0.9366 -0.26508,1.74948 -0.79526,2.43869 -2.22675,2.22661 -5.54032,3.33989 -9.94083,3.33989 -2.59786,0 -4.68321,-0.77754 -6.25608,-2.33263 -1.76724,-1.76717 -2.59785,-4.17046 -2.49183,-7.20996 z m 15.48117,-14.63199 c -1.85564,0 -3.64054,1.27231 -5.35479,3.81703 -1.44916,2.19128 -2.61555,4.78895 -3.49917,7.79312 2.95134,-0.3004 5.51382,-1.46673 7.68756,-3.49893 1.99701,-1.90855 2.9955,-3.73752 2.9955,-5.487 0,-1.74951 -0.6097,-2.62422 -1.8291,-2.62422 z"
     fill-rule="evenodd"
     fill="#2a2520"
     style="stroke-width:2.15092"
     inkscape:export-xdpi="96"
     inkscape:export-ydpi="96" />
</svg>
